<svg xmlns="http://www.w3.org/2000/svg" xmlns:xlink="http://www.w3.org/1999/xlink" zoomAndPan="magnify" preserveAspectRatio="xMidYMid meet" version="1.0" viewBox="4.18 159.55 366.61 56.41"><defs><g/></defs><g fill="#000000" fill-opacity="1"><g transform="translate(1.371098, 215.952891)"><g><path d="M 59.21875 -56.40625 L 59.21875 -45.125 L 14.09375 -45.125 L 14.09375 -11.28125 L 47.9375 -11.28125 L 47.9375 -22.5625 L 25.375 -22.5625 L 25.375 -33.84375 L 59.21875 -33.84375 L 59.21875 -11.28125 C 59.21875 -9.257812 58.710938 -7.390625 57.703125 -5.671875 C 56.691406 -3.960938 55.335938 -2.585938 53.640625 -1.546875 C 51.953125 -0.515625 50.050781 0 47.9375 0 L 14.09375 0 C 12.03125 0 10.140625 -0.503906 8.421875 -1.515625 C 6.703125 -2.523438 5.335938 -3.882812 4.328125 -5.59375 C 3.316406 -7.3125 2.8125 -9.207031 2.8125 -11.28125 L 2.8125 -45.125 C 2.8125 -47.1875 3.316406 -49.078125 4.328125 -50.796875 C 5.335938 -52.515625 6.703125 -53.878906 8.421875 -54.890625 C 10.140625 -55.898438 12.03125 -56.40625 14.09375 -56.40625 Z M 59.21875 -56.40625 "/></g></g></g><g fill="#000000" fill-opacity="1"><g transform="translate(63.411164, 215.952891)"><g><path d="M 59.21875 -45.125 L 59.21875 -33.84375 C 59.21875 -31.769531 58.710938 -29.875 57.703125 -28.15625 C 56.691406 -26.445312 55.328125 -25.085938 53.609375 -24.078125 C 51.898438 -23.066406 50.007812 -22.5625 47.9375 -22.5625 L 36.65625 -22.5625 L 47.9375 -11.28125 L 59.21875 -11.28125 L 59.21875 0 L 45.6875 0 C 44.082031 0 42.71875 -0.5625 41.59375 -1.6875 L 20.734375 -22.5625 L 14.09375 -22.5625 L 14.09375 0 L 2.8125 0 L 2.8125 -56.40625 L 47.9375 -56.40625 C 50.007812 -56.40625 51.898438 -55.898438 53.609375 -54.890625 C 55.328125 -53.878906 56.691406 -52.515625 57.703125 -50.796875 C 58.710938 -49.078125 59.21875 -47.1875 59.21875 -45.125 Z M 47.9375 -45.125 L 14.09375 -45.125 L 14.09375 -33.84375 L 47.9375 -33.84375 Z M 47.9375 -45.125 "/></g></g></g><g fill="#000000" fill-opacity="1"><g transform="translate(125.45123, 215.952891)"><g><path d="M 14.09375 -56.40625 L 47.9375 -56.40625 C 50.007812 -56.40625 51.898438 -55.898438 53.609375 -54.890625 C 55.328125 -53.878906 56.691406 -52.515625 57.703125 -50.796875 C 58.710938 -49.078125 59.21875 -47.1875 59.21875 -45.125 L 59.21875 0 L 47.9375 0 L 47.9375 -22.5625 L 14.09375 -22.5625 L 14.09375 0 L 2.8125 0 L 2.8125 -45.125 C 2.8125 -47.1875 3.316406 -49.078125 4.328125 -50.796875 C 5.335938 -52.515625 6.703125 -53.878906 8.421875 -54.890625 C 10.140625 -55.898438 12.03125 -56.40625 14.09375 -56.40625 Z M 14.09375 -45.125 L 14.09375 -33.84375 L 47.9375 -33.84375 L 47.9375 -45.125 Z M 14.09375 -45.125 "/></g></g></g><g fill="#000000" fill-opacity="1"><g transform="translate(187.491295, 215.952891)"><g><path d="M 47.9375 0 L 2.8125 0 L 2.8125 -56.40625 L 47.9375 -56.40625 C 50.007812 -56.40625 51.898438 -55.898438 53.609375 -54.890625 C 55.328125 -53.878906 56.691406 -52.515625 57.703125 -50.796875 C 58.710938 -49.078125 59.21875 -47.1875 59.21875 -45.125 L 59.21875 -11.28125 C 59.21875 -9.207031 58.710938 -7.3125 57.703125 -5.59375 C 56.691406 -3.882812 55.328125 -2.523438 53.609375 -1.515625 C 51.898438 -0.503906 50.007812 0 47.9375 0 Z M 14.09375 -45.125 L 14.09375 -11.28125 L 47.9375 -11.28125 L 47.9375 -45.125 Z M 14.09375 -45.125 "/></g></g></g><g fill="#000000" fill-opacity="1"><g transform="translate(249.531361, 215.952891)"><g><path d="M 59.21875 -56.40625 L 59.21875 -45.125 L 14.09375 -45.125 L 14.09375 -33.84375 L 59.21875 -33.84375 L 59.21875 -22.5625 L 14.09375 -22.5625 L 14.09375 -11.28125 L 59.21875 -11.28125 L 59.21875 0 L 14.09375 0 C 12.03125 0 10.140625 -0.503906 8.421875 -1.515625 C 6.703125 -2.523438 5.335938 -3.882812 4.328125 -5.59375 C 3.316406 -7.3125 2.8125 -9.207031 2.8125 -11.28125 L 2.8125 -45.125 C 2.8125 -47.1875 3.316406 -49.078125 4.328125 -50.796875 C 5.335938 -52.515625 6.703125 -53.878906 8.421875 -54.890625 C 10.140625 -55.898438 12.03125 -56.40625 14.09375 -56.40625 Z M 59.21875 -56.40625 "/></g></g></g><g fill="#000000" fill-opacity="1"><g transform="translate(311.571427, 215.952891)"><g><path d="M 47.9375 0 L 2.8125 0 L 2.8125 -56.40625 L 47.9375 -56.40625 C 50.007812 -56.40625 51.898438 -55.898438 53.609375 -54.890625 C 55.328125 -53.878906 56.691406 -52.515625 57.703125 -50.796875 C 58.710938 -49.078125 59.21875 -47.1875 59.21875 -45.125 L 59.21875 -11.28125 C 59.21875 -9.207031 58.710938 -7.3125 57.703125 -5.59375 C 56.691406 -3.882812 55.328125 -2.523438 53.609375 -1.515625 C 51.898438 -0.503906 50.007812 0 47.9375 0 Z M 14.09375 -45.125 L 14.09375 -11.28125 L 47.9375 -11.28125 L 47.9375 -45.125 Z M 14.09375 -45.125 "/></g></g></g></svg>